<?xml version="1.0" encoding="iso-8859-1"?>
<!-- Generator: Adobe Illustrator 29.3.1, SVG Export Plug-In . SVG Version: 9.03 Build 55982)  -->
<svg version="1.1" id="Layer_1" xmlns="http://www.w3.org/2000/svg" xmlns:xlink="http://www.w3.org/1999/xlink" x="0px" y="0px"
	 width="702px" height="263px" viewBox="0 0 702 263" enable-background="new 0 0 702 263" xml:space="preserve">
<g>
	<path fill="none" stroke="#2D2D2B" stroke-width="1.5895" stroke-linejoin="round" stroke-miterlimit="20.7" d="M116.659,88.083
		h14.285c1.919,0,3.67,0.232,5.251,0.693c1.581,0.462,2.949,1.154,4.104,2.078c1.154,0.924,2.043,2.106,2.665,3.545
		c0.621,1.439,0.933,3.118,0.933,5.038c0,1.918-0.312,3.598-0.933,5.037c-0.622,1.439-1.511,2.621-2.665,3.545
		c-1.155,0.925-2.523,1.617-4.104,2.079c-1.582,0.463-3.332,0.692-5.251,0.692h-7.355v13.54h-6.929V88.083z M130.091,104.715
		c2.06,0,3.687-0.391,4.878-1.173c1.19-0.781,1.785-2.15,1.785-4.104c0-1.954-0.595-3.322-1.785-4.104
		c-1.191-0.782-2.817-1.173-4.878-1.173h-6.503v10.554H130.091z"/>
	<path fill="none" stroke="#2D2D2B" stroke-width="1.5895" stroke-linejoin="round" stroke-miterlimit="20.7" d="M159.781,109.671
		h-5.757v14.659h-6.929V88.083h16.098c1.741,0,3.35,0.249,4.824,0.747c1.474,0.498,2.746,1.218,3.811,2.159
		c1.067,0.942,1.892,2.079,2.479,3.41c0.587,1.333,0.88,2.835,0.88,4.505c0,2.664-0.719,4.887-2.159,6.663
		c-1.439,1.777-3.368,2.985-5.784,3.624l11.727,14.978v0.16h-8.315L159.781,109.671z M162.447,103.648
		c1.847,0,3.243-0.417,4.184-1.253c0.942-0.835,1.413-1.999,1.413-3.491c0-1.493-0.471-2.657-1.413-3.492
		c-0.942-0.834-2.338-1.253-4.184-1.253h-8.422v9.488H162.447z"/>
	<path fill="none" stroke="#2D2D2B" stroke-width="1.5895" stroke-linejoin="round" stroke-miterlimit="20.7" d="M196.721,125.076
		c-2.665,0-5.126-0.479-7.382-1.438c-2.257-0.96-4.203-2.274-5.837-3.945c-1.634-1.67-2.914-3.659-3.838-5.971
		c-0.925-2.309-1.386-4.814-1.386-7.515c0-2.7,0.461-5.205,1.386-7.515c0.924-2.311,2.203-4.3,3.838-5.971
		c1.634-1.67,3.58-2.984,5.837-3.944c2.256-0.96,4.717-1.439,7.382-1.439c2.665,0,5.125,0.48,7.382,1.439
		c2.257,0.96,4.202,2.274,5.837,3.944c1.634,1.671,2.913,3.66,3.838,5.971c0.924,2.311,1.386,4.815,1.386,7.515
		c0,2.701-0.462,5.207-1.386,7.515c-0.925,2.312-2.203,4.301-3.838,5.971c-1.635,1.671-3.58,2.985-5.837,3.945
		C201.846,124.597,199.387,125.076,196.721,125.076z M196.721,93.787c-1.742,0-3.314,0.32-4.718,0.96
		c-1.404,0.64-2.594,1.511-3.57,2.613c-0.979,1.101-1.725,2.416-2.239,3.943c-0.516,1.529-0.773,3.164-0.773,4.905
		c0,1.777,0.257,3.42,0.773,4.93c0.515,1.511,1.261,2.817,2.239,3.918c0.977,1.103,2.167,1.973,3.57,2.612
		c1.404,0.64,2.976,0.96,4.718,0.96c1.74,0,3.313-0.32,4.718-0.96c1.403-0.639,2.593-1.509,3.571-2.612
		c0.977-1.101,1.723-2.407,2.238-3.918c0.515-1.51,0.773-3.153,0.773-4.93c0-1.74-0.258-3.376-0.773-4.905
		c-0.516-1.527-1.262-2.842-2.238-3.943c-0.979-1.102-2.169-1.973-3.571-2.613C200.034,94.107,198.462,93.787,196.721,93.787z"/>
	<path fill="none" stroke="#2D2D2B" stroke-width="1.5895" stroke-linejoin="round" stroke-miterlimit="20.7" d="M226.677,125.076
		c-1.457,0-2.791-0.186-3.998-0.559c-1.209-0.373-2.311-0.879-3.305-1.52c-0.995-0.639-1.866-1.377-2.612-2.211
		c-0.746-0.834-1.368-1.731-1.866-2.691l5.117-3.891c0.71,1.171,1.573,2.202,2.586,3.091c1.012,0.889,2.318,1.333,3.917,1.333
		c2.487,0,4.246-0.737,5.277-2.212c1.03-1.474,1.546-3.491,1.546-6.05V88.084h6.929v22.494c0,2.132-0.275,4.087-0.826,5.863
		c-0.551,1.777-1.386,3.305-2.505,4.584c-1.12,1.28-2.532,2.275-4.238,2.985C230.995,124.722,228.987,125.076,226.677,125.076z"/>
	<polygon fill="none" stroke="#2D2D2B" stroke-width="1.5895" stroke-linejoin="round" stroke-miterlimit="20.7" points="
		246.506,88.083 271.985,88.083 271.985,94.16 253.435,94.16 253.435,103.009 269.427,103.009 269.427,109.032 253.435,109.032 
		253.435,118.253 271.985,118.253 271.985,124.33 246.506,124.33 	"/>
	<path fill="none" stroke="#2D2D2B" stroke-width="1.5895" stroke-linejoin="round" stroke-miterlimit="20.7" d="M292.773,125.076
		c-2.665,0-5.126-0.479-7.382-1.439c-2.257-0.96-4.203-2.274-5.837-3.945c-1.634-1.67-2.914-3.66-3.838-5.971
		c-0.925-2.309-1.386-4.814-1.386-7.515c0-2.7,0.461-5.205,1.386-7.516c0.924-2.31,2.203-4.299,3.838-5.97
		c1.634-1.67,3.58-2.984,5.837-3.944c2.256-0.96,4.717-1.439,7.382-1.439c3.766,0,7.018,0.809,9.755,2.425
		c2.736,1.617,4.904,3.776,6.503,6.477l-5.17,3.838c-1.138-1.919-2.578-3.447-4.318-4.585c-1.741-1.137-3.944-1.706-6.609-1.706
		c-1.777,0-3.368,0.32-4.77,0.96c-1.405,0.64-2.604,1.511-3.598,2.613c-0.995,1.101-1.759,2.416-2.292,3.943
		c-0.534,1.529-0.8,3.164-0.8,4.905c0,1.777,0.266,3.42,0.8,4.93c0.532,1.511,1.296,2.817,2.292,3.918
		c0.994,1.102,2.193,1.972,3.598,2.612c1.403,0.64,2.993,0.96,4.77,0.96c2.665,0,4.869-0.567,6.609-1.706
		c1.741-1.137,3.18-2.665,4.318-4.584l5.17,3.838c-1.599,2.701-3.767,4.86-6.503,6.476
		C299.791,124.268,296.539,125.076,292.773,125.076z"/>
	<polygon fill="none" stroke="#2D2D2B" stroke-width="1.5895" stroke-linejoin="round" stroke-miterlimit="20.7" points="
		321.13,94.16 310.096,94.16 310.096,88.083 339.094,88.083 339.094,94.16 328.06,94.16 328.06,124.33 321.13,124.33 	"/>
	<polygon fill="none" stroke="#2D2D2B" stroke-width="1.5895" stroke-linejoin="round" stroke-miterlimit="20.7" points="
		353.805,88.083 360.734,88.083 360.734,103.009 378.697,103.009 378.697,88.083 385.626,88.083 385.626,124.33 378.697,124.33 
		378.697,109.032 360.734,109.032 360.734,124.33 353.805,124.33 	"/>
	<path fill="none" stroke="#2D2D2B" stroke-width="1.5895" stroke-linejoin="round" stroke-miterlimit="20.7" d="M402.151,88.084
		h8.155l14.126,36.247h-7.197l-2.931-7.676h-16.151l-2.932,7.676h-7.196L402.151,88.084z M400.445,110.631h11.514l-5.757-15.138
		L400.445,110.631z"/>
	<path fill="none" stroke="#2D2D2B" stroke-width="1.5895" stroke-linejoin="round" stroke-miterlimit="20.7" d="M439.517,125.076
		c-2.097,0-3.963-0.248-5.597-0.746c-1.635-0.498-3.084-1.138-4.344-1.919c-1.262-0.781-2.346-1.66-3.252-2.639
		c-0.906-0.976-1.679-1.945-2.319-2.905l4.531-4.424c0.533,0.818,1.146,1.607,1.839,2.372c0.693,0.764,1.501,1.447,2.425,2.051
		c0.924,0.605,1.946,1.085,3.065,1.439c1.12,0.356,2.372,0.533,3.758,0.533c2.239,0,3.935-0.489,5.09-1.466
		c1.155-0.977,1.733-2.176,1.733-3.598c0-1.138-0.445-2.123-1.332-2.958c-0.889-0.833-2.399-1.412-4.531-1.733l-3.145-0.479
		c-1.598-0.248-3.056-0.658-4.371-1.226c-1.314-0.569-2.443-1.287-3.384-2.159c-0.943-0.87-1.672-1.884-2.187-3.039
		c-0.516-1.154-0.772-2.425-0.772-3.812c0-1.527,0.301-2.966,0.906-4.317c0.604-1.35,1.474-2.522,2.612-3.518
		c1.137-0.994,2.513-1.776,4.131-2.345c1.616-0.567,3.438-0.852,5.464-0.852c2.806,0,5.312,0.55,7.515,1.652
		s3.962,2.505,5.277,4.211l-4.424,4.584c-1.138-1.385-2.435-2.433-3.891-3.145c-1.457-0.71-3.003-1.065-4.637-1.065
		c-1.813,0-3.225,0.408-4.238,1.225c-1.012,0.819-1.519,1.778-1.519,2.879c0,1.066,0.39,1.964,1.172,2.692
		c0.782,0.728,1.973,1.217,3.572,1.465l3.091,0.48c3.766,0.569,6.681,1.768,8.742,3.598c2.06,1.831,3.092,4.291,3.092,7.383
		c0,1.742-0.338,3.331-1.012,4.77c-0.676,1.44-1.635,2.684-2.879,3.731c-1.244,1.049-2.728,1.858-4.451,2.426
		C443.523,124.792,441.613,125.076,439.517,125.076z"/>
	<polygon fill="none" stroke="#2D2D2B" stroke-width="1.5895" stroke-linejoin="round" stroke-miterlimit="20.7" points="
		457.907,88.083 464.836,88.083 464.836,103.009 482.8,103.009 482.8,88.083 489.729,88.083 489.729,124.33 482.8,124.33 
		482.8,109.032 464.836,109.032 464.836,124.33 457.907,124.33 	"/>
	<polygon fill="none" stroke="#2D2D2B" stroke-width="1.5895" stroke-linejoin="round" stroke-miterlimit="20.7" points="
		503.534,94.16 492.5,94.16 492.5,88.083 521.498,88.083 521.498,94.16 510.464,94.16 510.464,124.33 503.534,124.33 	"/>
	<path fill="none" stroke="#2D2D2B" stroke-width="1.5895" stroke-linejoin="round" stroke-miterlimit="20.7" d="M530.719,88.084
		h8.155L553,124.33h-7.196l-2.931-7.676h-16.151l-2.932,7.676h-7.196L530.719,88.084z M529.013,110.631h11.514l-5.757-15.138
		L529.013,110.631z"/>
	<path fill="none" stroke="#2D2D2B" stroke-width="1.5895" stroke-linejoin="round" stroke-miterlimit="20.7" d="M570.484,125.076
		c-2.701,0-5.189-0.479-7.463-1.439c-2.275-0.96-4.238-2.274-5.89-3.945c-1.652-1.67-2.941-3.66-3.865-5.971
		c-0.925-2.309-1.386-4.814-1.386-7.515c0-2.7,0.461-5.205,1.386-7.516c0.924-2.31,2.212-4.299,3.865-5.97
		c1.652-1.67,3.615-2.984,5.89-3.944c2.274-0.96,4.762-1.439,7.463-1.439c3.731,0,6.956,0.773,9.674,2.319
		c2.719,1.546,4.878,3.651,6.477,6.316l-5.171,3.891c-1.138-1.883-2.577-3.367-4.318-4.451c-1.741-1.084-3.927-1.626-6.557-1.626
		c-1.742,0-3.323,0.32-4.744,0.96c-1.422,0.64-2.639,1.511-3.652,2.613c-1.012,1.101-1.794,2.416-2.346,3.943
		c-0.55,1.529-0.826,3.164-0.826,4.905c0,1.777,0.275,3.42,0.826,4.93c0.551,1.511,1.333,2.817,2.346,3.918
		c1.013,1.102,2.23,1.972,3.652,2.612c1.421,0.64,3.02,0.96,4.797,0.96c1.741,0,3.411-0.222,5.011-0.667
		c1.598-0.443,2.913-1.039,3.944-1.785v-6.184h-8.155v-6.022h15.084v15.778c-0.924,0.711-1.991,1.395-3.198,2.052
		c-1.209,0.658-2.514,1.227-3.918,1.706c-1.404,0.48-2.861,0.861-4.371,1.146C573.53,124.933,572.012,125.076,570.484,125.076z"/>
	<path fill="#B1B1B1" d="M116.659,88.083h14.285c1.919,0,3.67,0.232,5.251,0.693c1.581,0.462,2.949,1.154,4.104,2.078
		c1.154,0.924,2.043,2.106,2.665,3.545c0.621,1.439,0.933,3.118,0.933,5.038c0,1.918-0.312,3.598-0.933,5.037
		c-0.622,1.439-1.511,2.621-2.665,3.545c-1.155,0.925-2.523,1.617-4.104,2.079c-1.582,0.463-3.332,0.692-5.251,0.692h-7.355v13.54
		h-6.929V88.083z M130.091,104.715c2.06,0,3.687-0.391,4.878-1.173c1.19-0.781,1.785-2.15,1.785-4.104
		c0-1.954-0.595-3.322-1.785-4.104c-1.191-0.782-2.817-1.173-4.878-1.173h-6.503v10.554H130.091z"/>
	<path fill="#B1B1B1" d="M159.781,109.671h-5.757v14.659h-6.929V88.083h16.098c1.741,0,3.35,0.249,4.824,0.747
		c1.474,0.498,2.746,1.218,3.811,2.159c1.067,0.942,1.892,2.079,2.479,3.41c0.587,1.333,0.88,2.835,0.88,4.505
		c0,2.664-0.719,4.887-2.159,6.663c-1.439,1.777-3.368,2.985-5.784,3.624l11.727,14.978v0.16h-8.315L159.781,109.671z
		 M162.447,103.648c1.847,0,3.243-0.417,4.184-1.253c0.942-0.835,1.413-1.999,1.413-3.491c0-1.493-0.471-2.657-1.413-3.492
		c-0.942-0.834-2.338-1.253-4.184-1.253h-8.422v9.488H162.447z"/>
	<path fill="#B1B1B1" d="M196.721,125.076c-2.665,0-5.126-0.479-7.382-1.438c-2.257-0.96-4.203-2.274-5.837-3.945
		c-1.634-1.67-2.914-3.659-3.838-5.971c-0.925-2.309-1.386-4.814-1.386-7.515c0-2.7,0.461-5.205,1.386-7.515
		c0.924-2.311,2.203-4.3,3.838-5.971c1.634-1.67,3.58-2.984,5.837-3.944c2.256-0.96,4.717-1.439,7.382-1.439
		c2.665,0,5.125,0.48,7.382,1.439c2.257,0.96,4.202,2.274,5.837,3.944c1.634,1.671,2.913,3.66,3.838,5.971
		c0.924,2.311,1.386,4.815,1.386,7.515c0,2.701-0.462,5.207-1.386,7.515c-0.925,2.312-2.203,4.301-3.838,5.971
		c-1.635,1.671-3.58,2.985-5.837,3.945C201.846,124.597,199.387,125.076,196.721,125.076 M196.721,93.787
		c-1.742,0-3.314,0.32-4.718,0.96c-1.404,0.64-2.594,1.511-3.57,2.613c-0.979,1.101-1.725,2.416-2.239,3.943
		c-0.516,1.529-0.773,3.164-0.773,4.905c0,1.777,0.257,3.42,0.773,4.93c0.515,1.511,1.261,2.817,2.239,3.918
		c0.977,1.103,2.167,1.973,3.57,2.612c1.404,0.64,2.976,0.96,4.718,0.96c1.74,0,3.313-0.32,4.718-0.96
		c1.403-0.639,2.593-1.509,3.571-2.612c0.977-1.101,1.723-2.407,2.238-3.918c0.515-1.51,0.773-3.153,0.773-4.93
		c0-1.74-0.258-3.376-0.773-4.905c-0.516-1.527-1.262-2.842-2.238-3.943c-0.979-1.102-2.169-1.973-3.571-2.613
		C200.034,94.107,198.462,93.787,196.721,93.787"/>
	<path fill="#B1B1B1" d="M226.677,125.076c-1.457,0-2.791-0.186-3.998-0.559c-1.209-0.373-2.311-0.879-3.305-1.52
		c-0.995-0.639-1.866-1.377-2.612-2.211c-0.746-0.834-1.368-1.731-1.866-2.691l5.117-3.891c0.71,1.171,1.573,2.202,2.586,3.091
		c1.012,0.889,2.318,1.333,3.917,1.333c2.487,0,4.246-0.737,5.277-2.212c1.03-1.474,1.546-3.491,1.546-6.05V88.084h6.929v22.494
		c0,2.132-0.275,4.087-0.826,5.863c-0.551,1.777-1.386,3.305-2.505,4.584c-1.12,1.28-2.532,2.275-4.238,2.985
		C230.995,124.722,228.987,125.076,226.677,125.076"/>
	<polygon fill="#B1B1B1" points="246.506,88.083 271.985,88.083 271.985,94.16 253.435,94.16 253.435,103.009 269.427,103.009 
		269.427,109.032 253.435,109.032 253.435,118.253 271.985,118.253 271.985,124.33 246.506,124.33 	"/>
	<path fill="#B1B1B1" d="M292.773,125.076c-2.665,0-5.126-0.479-7.382-1.439c-2.257-0.96-4.203-2.274-5.837-3.945
		c-1.634-1.67-2.914-3.66-3.838-5.971c-0.925-2.309-1.386-4.814-1.386-7.515c0-2.7,0.461-5.205,1.386-7.516
		c0.924-2.31,2.203-4.299,3.838-5.97c1.634-1.67,3.58-2.984,5.837-3.944c2.256-0.96,4.717-1.439,7.382-1.439
		c3.766,0,7.018,0.809,9.755,2.425c2.736,1.617,4.904,3.776,6.503,6.477l-5.17,3.838c-1.138-1.919-2.578-3.447-4.318-4.585
		c-1.741-1.137-3.944-1.706-6.609-1.706c-1.777,0-3.368,0.32-4.77,0.96c-1.405,0.64-2.604,1.511-3.598,2.613
		c-0.995,1.101-1.759,2.416-2.292,3.943c-0.534,1.529-0.8,3.164-0.8,4.905c0,1.777,0.266,3.42,0.8,4.93
		c0.532,1.511,1.296,2.817,2.292,3.918c0.994,1.102,2.193,1.972,3.598,2.612c1.403,0.64,2.993,0.96,4.77,0.96
		c2.665,0,4.869-0.567,6.609-1.706c1.741-1.137,3.18-2.665,4.318-4.584l5.17,3.838c-1.599,2.701-3.767,4.86-6.503,6.476
		C299.791,124.268,296.539,125.076,292.773,125.076"/>
	<polygon fill="#B1B1B1" points="321.13,94.16 310.096,94.16 310.096,88.083 339.094,88.083 339.094,94.16 328.06,94.16 
		328.06,124.33 321.13,124.33 	"/>
	<polygon fill="#B1B1B1" points="353.805,88.083 360.734,88.083 360.734,103.009 378.697,103.009 378.697,88.083 385.626,88.083 
		385.626,124.33 378.697,124.33 378.697,109.032 360.734,109.032 360.734,124.33 353.805,124.33 	"/>
	<path fill="#B1B1B1" d="M402.151,88.084h8.155l14.126,36.247h-7.197l-2.931-7.676h-16.151l-2.932,7.676h-7.196L402.151,88.084z
		 M400.445,110.631h11.514l-5.757-15.138L400.445,110.631z"/>
	<path fill="#B1B1B1" d="M439.517,125.076c-2.097,0-3.963-0.248-5.597-0.746c-1.635-0.498-3.084-1.138-4.344-1.919
		c-1.262-0.781-2.346-1.66-3.252-2.639c-0.906-0.976-1.679-1.945-2.319-2.905l4.531-4.424c0.533,0.818,1.146,1.607,1.839,2.372
		c0.693,0.764,1.501,1.447,2.425,2.051c0.924,0.605,1.946,1.085,3.065,1.439c1.12,0.356,2.372,0.533,3.758,0.533
		c2.239,0,3.935-0.489,5.09-1.466c1.155-0.977,1.733-2.176,1.733-3.598c0-1.138-0.445-2.123-1.332-2.958
		c-0.889-0.833-2.399-1.412-4.531-1.733l-3.145-0.479c-1.598-0.248-3.056-0.658-4.371-1.226c-1.314-0.569-2.443-1.287-3.384-2.159
		c-0.943-0.87-1.672-1.884-2.187-3.039c-0.516-1.154-0.772-2.425-0.772-3.812c0-1.527,0.301-2.966,0.906-4.317
		c0.604-1.35,1.474-2.522,2.612-3.518c1.137-0.994,2.513-1.776,4.131-2.345c1.616-0.567,3.438-0.852,5.464-0.852
		c2.806,0,5.312,0.55,7.515,1.652s3.962,2.505,5.277,4.211l-4.424,4.584c-1.138-1.385-2.435-2.433-3.891-3.145
		c-1.457-0.71-3.003-1.065-4.637-1.065c-1.813,0-3.225,0.408-4.238,1.225c-1.012,0.819-1.519,1.778-1.519,2.879
		c0,1.066,0.39,1.964,1.172,2.692c0.782,0.728,1.973,1.217,3.572,1.465l3.091,0.48c3.766,0.569,6.681,1.768,8.742,3.598
		c2.06,1.831,3.092,4.291,3.092,7.383c0,1.742-0.338,3.331-1.012,4.77c-0.676,1.44-1.635,2.684-2.879,3.731
		c-1.244,1.049-2.728,1.858-4.451,2.426C443.523,124.792,441.613,125.076,439.517,125.076"/>
	<polygon fill="#B1B1B1" points="457.907,88.083 464.836,88.083 464.836,103.009 482.8,103.009 482.8,88.083 489.729,88.083 
		489.729,124.33 482.8,124.33 482.8,109.032 464.836,109.032 464.836,124.33 457.907,124.33 	"/>
	<polygon fill="#B1B1B1" points="503.534,94.16 492.5,94.16 492.5,88.083 521.498,88.083 521.498,94.16 510.464,94.16 
		510.464,124.33 503.534,124.33 	"/>
	<path fill="#B1B1B1" d="M530.719,88.084h8.155L553,124.33h-7.196l-2.931-7.676h-16.151l-2.932,7.676h-7.196L530.719,88.084z
		 M529.013,110.631h11.514l-5.757-15.138L529.013,110.631z"/>
	<path fill="#B1B1B1" d="M570.484,125.076c-2.701,0-5.189-0.479-7.463-1.439c-2.275-0.96-4.238-2.274-5.89-3.945
		c-1.652-1.67-2.941-3.66-3.865-5.971c-0.925-2.309-1.386-4.814-1.386-7.515c0-2.7,0.461-5.205,1.386-7.516
		c0.924-2.31,2.212-4.299,3.865-5.97c1.652-1.67,3.615-2.984,5.89-3.944c2.274-0.96,4.762-1.439,7.463-1.439
		c3.731,0,6.956,0.773,9.674,2.319c2.719,1.546,4.878,3.651,6.477,6.316l-5.171,3.891c-1.138-1.883-2.577-3.367-4.318-4.451
		c-1.741-1.084-3.927-1.626-6.557-1.626c-1.742,0-3.323,0.32-4.744,0.96c-1.422,0.64-2.639,1.511-3.652,2.613
		c-1.012,1.101-1.794,2.416-2.346,3.943c-0.55,1.529-0.826,3.164-0.826,4.905c0,1.777,0.275,3.42,0.826,4.93
		c0.551,1.511,1.333,2.817,2.346,3.918c1.013,1.102,2.23,1.972,3.652,2.612c1.421,0.64,3.02,0.96,4.797,0.96
		c1.741,0,3.411-0.222,5.011-0.667c1.598-0.443,2.913-1.039,3.944-1.785v-6.184h-8.155v-6.022h15.084v15.778
		c-0.924,0.711-1.991,1.395-3.198,2.052c-1.209,0.658-2.514,1.227-3.918,1.706c-1.404,0.48-2.861,0.861-4.371,1.146
		C573.53,124.933,572.012,125.076,570.484,125.076"/>
	<path fill="none" stroke="#2D2D2B" stroke-width="1.5895" stroke-linejoin="round" stroke-miterlimit="20.7" d="M293.662,170.412
		c0.746-1.421,1.714-2.736,2.905-3.944c1.19-1.208,2.452-2.336,3.784-3.385c1.333-1.048,2.683-2.06,4.052-3.039
		c1.367-0.977,2.593-1.953,3.678-2.932c1.083-0.977,1.972-1.98,2.664-3.011c0.693-1.03,1.04-2.15,1.04-3.359
		c0-0.781-0.116-1.527-0.347-2.238c-0.232-0.711-0.596-1.333-1.093-1.866c-0.498-0.533-1.145-0.96-1.946-1.28
		c-0.799-0.32-1.767-0.48-2.904-0.48c-1.672,0-3.039,0.427-4.105,1.28c-1.066,0.852-1.849,2.044-2.346,3.571l-5.223-2.879
		c0.32-0.924,0.791-1.874,1.413-2.851c0.621-0.977,1.412-1.866,2.371-2.665c0.96-0.799,2.114-1.456,3.465-1.972
		c1.35-0.515,2.932-0.773,4.744-0.773c2.026,0,3.829,0.302,5.41,0.906c1.582,0.604,2.914,1.44,3.999,2.506
		c1.083,1.066,1.909,2.311,2.479,3.731c0.568,1.422,0.852,2.95,0.852,4.584c0,1.778-0.32,3.377-0.96,4.798
		c-0.64,1.421-1.448,2.709-2.425,3.864c-0.978,1.155-2.078,2.204-3.305,3.145c-1.226,0.942-2.434,1.831-3.624,2.665
		c-1.191,0.835-2.284,1.634-3.278,2.398c-0.995,0.764-1.777,1.538-2.346,2.319h16.63v6.077h-25.585V170.412z"/>
	<path fill="none" stroke="#2D2D2B" stroke-width="1.5895" stroke-linejoin="round" stroke-miterlimit="20.7" d="M336.571,176.329
		c-4.513,0-7.952-1.633-10.314-4.904c-2.364-3.269-3.546-7.924-3.546-13.966c0-6.005,1.181-10.652,3.546-13.939
		c2.362-3.286,5.801-4.93,10.314-4.93c4.549,0,8.004,1.625,10.367,4.877c2.362,3.251,3.545,7.917,3.545,13.993
		c0,6.077-1.182,10.74-3.545,13.993C344.575,174.703,341.12,176.329,336.571,176.329z M336.571,170.04
		c4.619,0,6.93-4.193,6.93-12.58c0-8.386-2.311-12.58-6.93-12.58c-4.62,0-6.929,4.194-6.929,12.58
		C329.642,165.847,331.951,170.04,336.571,170.04z"/>
	<path fill="none" stroke="#2D2D2B" stroke-width="1.5895" stroke-linejoin="round" stroke-miterlimit="20.7" d="M352.988,170.412
		c0.746-1.421,1.714-2.736,2.905-3.944c1.19-1.208,2.452-2.336,3.784-3.385c1.333-1.048,2.683-2.06,4.052-3.039
		c1.367-0.977,2.593-1.953,3.678-2.932c1.083-0.977,1.972-1.98,2.664-3.011c0.693-1.03,1.04-2.15,1.04-3.359
		c0-0.781-0.116-1.527-0.347-2.238c-0.232-0.711-0.596-1.333-1.093-1.866c-0.498-0.533-1.145-0.96-1.946-1.28
		c-0.799-0.32-1.767-0.48-2.904-0.48c-1.672,0-3.039,0.427-4.105,1.28s-1.849,2.044-2.346,3.571l-5.224-2.879
		c0.32-0.924,0.791-1.874,1.413-2.851c0.621-0.977,1.412-1.866,2.371-2.665c0.96-0.799,2.114-1.456,3.465-1.972
		c1.35-0.515,2.932-0.773,4.744-0.773c2.026,0,3.829,0.302,5.41,0.906c1.582,0.604,2.914,1.44,3.999,2.506
		c1.083,1.066,1.909,2.311,2.479,3.731c0.568,1.422,0.852,2.95,0.852,4.584c0,1.778-0.32,3.377-0.96,4.798
		c-0.64,1.421-1.448,2.709-2.425,3.864c-0.978,1.155-2.078,2.204-3.305,3.145c-1.226,0.942-2.434,1.831-3.624,2.665
		c-1.191,0.835-2.284,1.634-3.278,2.398c-0.995,0.764-1.777,1.538-2.346,2.319h16.63v6.077h-25.585V170.412z"/>
	<path fill="none" stroke="#2D2D2B" stroke-width="1.5895" stroke-linejoin="round" stroke-miterlimit="20.7" d="M380.386,161.564
		l15.031-22.228h8.369v21.162h5.118v6.023h-5.118v9.062h-6.716v-9.062h-16.684V161.564z M397.07,160.498v-13.912l-9.062,13.912
		H397.07z"/>
	<path fill="#B1B1B1" d="M293.662,170.412c0.746-1.421,1.714-2.736,2.905-3.944c1.19-1.208,2.452-2.336,3.784-3.385
		c1.333-1.048,2.683-2.06,4.052-3.039c1.367-0.977,2.593-1.953,3.678-2.932c1.083-0.977,1.972-1.98,2.664-3.011
		c0.693-1.03,1.04-2.15,1.04-3.359c0-0.781-0.116-1.527-0.347-2.238c-0.232-0.711-0.596-1.333-1.093-1.866
		c-0.498-0.533-1.145-0.96-1.946-1.28c-0.799-0.32-1.767-0.48-2.904-0.48c-1.672,0-3.039,0.427-4.105,1.28
		c-1.066,0.852-1.849,2.044-2.346,3.571l-5.223-2.879c0.32-0.924,0.791-1.874,1.413-2.851c0.621-0.977,1.412-1.866,2.371-2.665
		c0.96-0.799,2.114-1.456,3.465-1.972c1.35-0.515,2.932-0.773,4.744-0.773c2.026,0,3.829,0.302,5.41,0.906
		c1.582,0.604,2.914,1.44,3.999,2.506c1.083,1.066,1.909,2.311,2.479,3.731c0.568,1.422,0.852,2.95,0.852,4.584
		c0,1.778-0.32,3.377-0.96,4.798c-0.64,1.421-1.448,2.709-2.425,3.864c-0.978,1.155-2.078,2.204-3.305,3.145
		c-1.226,0.942-2.434,1.831-3.624,2.665c-1.191,0.835-2.284,1.634-3.278,2.398c-0.995,0.764-1.777,1.538-2.346,2.319h16.63v6.077
		h-25.585V170.412z"/>
	<path fill="#B1B1B1" d="M336.571,176.329c-4.513,0-7.952-1.633-10.314-4.904c-2.364-3.269-3.546-7.924-3.546-13.966
		c0-6.005,1.181-10.652,3.546-13.939c2.362-3.286,5.801-4.93,10.314-4.93c4.549,0,8.004,1.625,10.367,4.877
		c2.362,3.251,3.545,7.917,3.545,13.993c0,6.077-1.182,10.74-3.545,13.993C344.575,174.703,341.12,176.329,336.571,176.329
		 M336.571,170.04c4.619,0,6.93-4.193,6.93-12.58c0-8.386-2.311-12.58-6.93-12.58c-4.62,0-6.929,4.194-6.929,12.58
		C329.642,165.847,331.951,170.04,336.571,170.04"/>
	<path fill="#B1B1B1" d="M352.988,170.412c0.746-1.421,1.714-2.736,2.905-3.944c1.19-1.208,2.452-2.336,3.784-3.385
		c1.333-1.048,2.683-2.06,4.052-3.039c1.367-0.977,2.593-1.953,3.678-2.932c1.083-0.977,1.972-1.98,2.664-3.011
		c0.693-1.03,1.04-2.15,1.04-3.359c0-0.781-0.116-1.527-0.347-2.238c-0.232-0.711-0.596-1.333-1.093-1.866
		c-0.498-0.533-1.145-0.96-1.946-1.28c-0.799-0.32-1.767-0.48-2.904-0.48c-1.672,0-3.039,0.427-4.105,1.28s-1.849,2.044-2.346,3.571
		l-5.224-2.879c0.32-0.924,0.791-1.874,1.413-2.851c0.621-0.977,1.412-1.866,2.371-2.665c0.96-0.799,2.114-1.456,3.465-1.972
		c1.35-0.515,2.932-0.773,4.744-0.773c2.026,0,3.829,0.302,5.41,0.906c1.582,0.604,2.914,1.44,3.999,2.506
		c1.083,1.066,1.909,2.311,2.479,3.731c0.568,1.422,0.852,2.95,0.852,4.584c0,1.778-0.32,3.377-0.96,4.798
		c-0.64,1.421-1.448,2.709-2.425,3.864c-0.978,1.155-2.078,2.204-3.305,3.145c-1.226,0.942-2.434,1.831-3.624,2.665
		c-1.191,0.835-2.284,1.634-3.278,2.398c-0.995,0.764-1.777,1.538-2.346,2.319h16.63v6.077h-25.585V170.412z"/>
	<path fill="#B1B1B1" d="M380.386,161.564l15.031-22.228h8.369v21.162h5.118v6.023h-5.118v9.062h-6.716v-9.062h-16.684V161.564z
		 M397.07,160.498v-13.912l-9.062,13.912H397.07z"/>
	<rect x="0.714" y="51.914" fill="#2D2D2B" width="52.164" height="158.802"/>
	<rect x="648.551" y="51.588" fill="#2D2D2B" width="52.163" height="158.802"/>
	<rect x="0.714" y="210.389" fill="#B1B1B1" width="52.164" height="51.867"/>
	<rect x="648.551" y="210.389" fill="#B1B1B1" width="52.163" height="51.867"/>
	<rect x="0.714" y="-0.28" fill="#B1B1B1" width="52.164" height="51.866"/>
	<rect x="648.551" y="-0.28" fill="#B1B1B1" width="52.163" height="51.866"/>
	<rect x="52.878" y="-0.28" fill="#2D2D2B" width="595.672" height="51.866"/>
	<rect x="52.878" y="210.389" fill="#2D2D2B" width="595.672" height="51.867"/>
	<path fill="#ECECEC" d="M247.067,241.562v-11.277h1.384v4.255h1.577v1.126h-1.577v5.895H247.067z M245.709,235.129
		c0,0.692-0.074,1.276-0.224,1.75c-0.149,0.474-0.357,0.86-0.621,1.159c-0.265,0.299-0.576,0.52-0.936,0.66
		c-0.359,0.141-0.743,0.212-1.152,0.212c-0.411,0-0.791-0.066-1.14-0.199c-0.351-0.132-0.663-0.353-0.936-0.66
		c-0.265-0.299-0.47-0.688-0.615-1.166c-0.145-0.478-0.219-1.063-0.219-1.755c0-0.674,0.073-1.253,0.219-1.736
		c0.145-0.482,0.35-0.877,0.615-1.185c0.264-0.308,0.574-0.533,0.929-0.68c0.355-0.144,0.736-0.216,1.147-0.216
		c0.409,0,0.794,0.073,1.152,0.216c0.36,0.146,0.671,0.372,0.936,0.68c0.264,0.308,0.472,0.701,0.621,1.179
		C245.635,233.865,245.709,234.446,245.709,235.129 M244.351,235.103c0-0.513-0.047-0.937-0.141-1.275
		c-0.094-0.338-0.214-0.612-0.359-0.827c-0.145-0.223-0.312-0.374-0.5-0.455c-0.188-0.08-0.376-0.121-0.564-0.121
		c-0.196,0-0.386,0.049-0.569,0.147c-0.185,0.098-0.349,0.249-0.494,0.455c-0.163,0.214-0.289,0.489-0.378,0.827
		c-0.089,0.338-0.13,0.754-0.121,1.249c0,0.514,0.047,0.944,0.141,1.294c0.093,0.35,0.213,0.628,0.359,0.833
		c0.136,0.196,0.299,0.337,0.487,0.422c0.188,0.085,0.38,0.128,0.576,0.128c0.188,0,0.374-0.039,0.557-0.115
		c0.184-0.077,0.353-0.226,0.507-0.448c0.145-0.197,0.264-0.471,0.359-0.821C244.305,236.047,244.351,235.617,244.351,235.103"/>
	<path fill="#ECECEC" d="M258.087,241.549v-11.25h1.384v4.215h1.577v1.128h-1.577v5.907H258.087z M250.809,238.191
		c0.427-0.162,0.832-0.356,1.217-0.583c0.384-0.226,0.732-0.47,1.044-0.729c0.312-0.261,0.581-0.54,0.808-0.839
		c0.226-0.3,0.403-0.607,0.532-0.923c-0.154,0.085-0.353,0.152-0.597,0.198c-0.243,0.048-0.493,0.072-0.749,0.072h-2.038v-1.141
		h3.767c0.043-0.187,0.076-0.376,0.102-0.563s0.039-0.367,0.039-0.537v-0.372h-3.793v-1.153h5.24v1.05
		c0,1.564-0.426,2.89-1.281,3.979c-0.854,1.09-2.08,1.972-3.678,2.645L250.809,238.191z"/>
	<path fill="#ECECEC" d="M269.504,241.562v-11.277h1.371v11.277H269.504z M267.979,235.129c0,0.692-0.076,1.276-0.23,1.75
		c-0.154,0.474-0.364,0.86-0.628,1.159c-0.256,0.299-0.564,0.52-0.923,0.66c-0.359,0.141-0.743,0.212-1.153,0.212
		c-0.418,0-0.803-0.066-1.152-0.199c-0.351-0.132-0.659-0.353-0.923-0.66c-0.265-0.299-0.47-0.688-0.615-1.166
		c-0.146-0.478-0.218-1.063-0.218-1.755c0-0.674,0.072-1.253,0.218-1.736c0.145-0.482,0.35-0.877,0.615-1.185
		c0.256-0.308,0.561-0.533,0.916-0.68c0.355-0.144,0.741-0.216,1.159-0.216c0.41,0,0.795,0.073,1.153,0.216
		c0.359,0.146,0.667,0.372,0.923,0.68c0.264,0.308,0.474,0.698,0.628,1.173C267.902,233.854,267.979,234.438,267.979,235.129
		 M266.608,235.103c0-0.513-0.047-0.937-0.141-1.275c-0.094-0.338-0.21-0.612-0.346-0.827c-0.146-0.223-0.312-0.371-0.5-0.448
		c-0.189-0.077-0.376-0.116-0.564-0.116c-0.188,0-0.378,0.048-0.57,0.141c-0.192,0.094-0.361,0.243-0.506,0.449
		c-0.154,0.223-0.273,0.5-0.359,0.833c-0.085,0.334-0.128,0.748-0.128,1.243c0,0.514,0.045,0.944,0.134,1.294
		c0.089,0.35,0.207,0.628,0.353,0.833c0.136,0.205,0.303,0.348,0.5,0.428c0.197,0.081,0.388,0.122,0.576,0.122
		c0.188,0,0.372-0.039,0.551-0.115c0.179-0.077,0.35-0.226,0.513-0.448c0.136-0.197,0.251-0.471,0.346-0.821
		C266.561,236.047,266.608,235.617,266.608,235.103"/>
	<path fill="#ECECEC" d="M274.796,237.039c-0.377,0-0.564-0.154-0.564-0.462v-5.688h1.384v1.858h4.395v-1.858h1.384v6.15H274.796z
		 M280.01,235.898v-2.011h-4.395v2.011H280.01z M282.855,239.05v1.14h-10.097v-1.14H282.855z"/>
	<path fill="#ECECEC" d="M292.363,237.026v2.05h4.356v1.128h-10.097v-1.128h4.357v-2.05h-2.32c-0.18,0-0.318-0.035-0.416-0.102
		c-0.098-0.069-0.147-0.188-0.147-0.359v-5.676h1.384v1.858h4.395v-1.858h1.384v6.137H292.363z M293.875,235.898v-2.025h-4.395
		v2.025H293.875z"/>
	<path fill="#ECECEC" d="M299.665,236.808c-0.368,0-0.551-0.154-0.551-0.462v-5.367h7.163v1.127h-5.766v3.613h5.831v1.09H299.665z
		 M307.738,239.05v1.14h-10.097v-1.14H307.738z"/>
	<path fill="#ECECEC" d="M316.81,241.549V230.3h1.332v11.25H316.81z M309.365,239.178c-0.137-0.171-0.273-0.337-0.41-0.5
		c-0.136-0.162-0.269-0.329-0.396-0.5c0.469-0.247,0.892-0.551,1.268-0.91c0.375-0.358,0.698-0.751,0.968-1.178
		c0.269-0.427,0.476-0.877,0.621-1.352c0.145-0.474,0.219-0.955,0.219-1.441V232.9h-2.703v-1.141h4.061v0.999
		c0,0.3-0.015,0.586-0.045,0.858c-0.03,0.274-0.071,0.538-0.122,0.795h1.614v-3.92h1.32v10.737h-1.32v-5.676h-1.947
		c-0.325,0.82-0.76,1.522-1.306,2.107C310.638,238.245,310.031,238.751,309.365,239.178"/>
	<path fill="#ECECEC" d="M327.432,236.589v-6.29h1.384v6.29H327.432z M319.859,233.4c0-0.392,0.073-0.757,0.219-1.09
		c0.145-0.333,0.35-0.621,0.615-0.864c0.264-0.243,0.585-0.435,0.961-0.577c0.375-0.14,0.795-0.212,1.256-0.212
		c0.462,0,0.879,0.069,1.256,0.206c0.376,0.137,0.694,0.327,0.955,0.57c0.26,0.243,0.463,0.534,0.609,0.871
		c0.145,0.337,0.218,0.703,0.218,1.096c0,0.384-0.069,0.743-0.206,1.076c-0.136,0.334-0.335,0.624-0.595,0.871
		c-0.261,0.248-0.579,0.442-0.955,0.583c-0.377,0.142-0.803,0.212-1.281,0.212c-0.479,0-0.905-0.07-1.282-0.212
		c-0.375-0.141-0.694-0.335-0.955-0.583c-0.26-0.247-0.461-0.537-0.602-0.871C319.93,234.143,319.859,233.784,319.859,233.4
		 M321.23,233.4c0,0.487,0.158,0.88,0.475,1.179c0.316,0.298,0.713,0.448,1.191,0.448c0.239,0,0.461-0.041,0.667-0.121
		c0.205-0.081,0.383-0.196,0.532-0.34c0.149-0.146,0.265-0.318,0.346-0.519c0.082-0.202,0.122-0.417,0.122-0.648
		c0-0.231-0.041-0.446-0.122-0.647c-0.08-0.201-0.197-0.374-0.346-0.52c-0.149-0.145-0.327-0.257-0.532-0.339
		c-0.206-0.082-0.427-0.123-0.667-0.123c-0.478,0-0.875,0.151-1.191,0.45C321.388,232.519,321.23,232.913,321.23,233.4
		 M322.038,241.6c-0.377,0-0.564-0.154-0.564-0.462v-4.035h7.342v4.497H322.038z M327.432,240.486v-2.256h-4.574v2.256H327.432z"/>
	<rect x="334.329" y="230.592" fill="#ECECEC" width="1.292" height="11.673"/>
	<path fill="#ECECEC" d="M343.03,230.991h1.733l3.225,9.062h-1.573l-0.719-2.106h-3.625l-0.705,2.106h-1.573L343.03,230.991z
		 M342.484,236.722h2.798l-1.026-3.039c-0.097-0.284-0.18-0.554-0.246-0.813c-0.066-0.257-0.099-0.439-0.099-0.546h-0.041
		c0,0.107-0.033,0.289-0.1,0.546c-0.066,0.258-0.148,0.528-0.246,0.813L342.484,236.722z"/>
	<path fill="#ECECEC" d="M349.053,233.323h1.373v1.106c0.178-0.373,0.428-0.678,0.753-0.919c0.324-0.24,0.703-0.36,1.139-0.36
		c0.071,0,0.135,0.002,0.193,0.007c0.058,0.004,0.117,0.011,0.18,0.02v1.386h-0.373c-0.418,0-0.785,0.093-1.1,0.279
		c-0.316,0.188-0.557,0.516-0.726,0.987v4.224h-1.439V233.323z"/>
	<path fill="#ECECEC" d="M354.864,236.682c0,0.701,0.151,1.264,0.453,1.685c0.302,0.422,0.733,0.634,1.292,0.634
		c0.382,0,0.708-0.1,0.98-0.3c0.271-0.2,0.478-0.477,0.62-0.833l1.106,0.533c-0.213,0.586-0.564,1.037-1.053,1.353
		c-0.488,0.315-1.038,0.473-1.652,0.473c-0.498,0-0.946-0.085-1.346-0.253c-0.399-0.168-0.737-0.409-1.012-0.719
		c-0.275-0.312-0.486-0.685-0.633-1.12c-0.147-0.436-0.221-0.92-0.221-1.452c0-0.534,0.074-1.014,0.221-1.447
		c0.147-0.431,0.358-0.802,0.633-1.112c0.275-0.312,0.613-0.551,1.012-0.72c0.4-0.169,0.848-0.253,1.346-0.253
		c0.614,0,1.164,0.158,1.652,0.473c0.489,0.316,0.84,0.766,1.053,1.353l-1.106,0.533c-0.142-0.355-0.349-0.632-0.62-0.833
		c-0.271-0.2-0.597-0.3-0.98-0.3c-0.559,0-0.99,0.212-1.292,0.633C355.015,235.431,354.864,235.989,354.864,236.682"/>
	<path fill="#ECECEC" d="M360.753,230.592h1.439v3.491c0.204-0.257,0.47-0.478,0.799-0.66c0.329-0.182,0.706-0.273,1.133-0.273
		c0.408,0,0.766,0.065,1.073,0.194c0.306,0.128,0.559,0.308,0.759,0.54c0.2,0.231,0.349,0.511,0.446,0.839
		c0.098,0.329,0.147,0.697,0.147,1.106v4.224h-1.439v-4.051c0-0.541-0.126-0.948-0.38-1.219c-0.253-0.271-0.598-0.406-1.033-0.406
		c-0.373,0-0.688,0.106-0.946,0.32c-0.258,0.214-0.444,0.471-0.559,0.773v4.584h-1.439V230.592z"/>
	<path fill="#ECECEC" d="M370.015,230.498v1.519h-1.652v-1.519H370.015z M369.896,233.323v6.73h-1.439v-6.73H369.896z"/>
	<path fill="#ECECEC" d="M371.134,233.323h1.546l1.332,3.905c0.098,0.284,0.181,0.55,0.247,0.799c0.066,0.249,0.1,0.427,0.1,0.533
		h0.04c0-0.106,0.033-0.284,0.099-0.533c0.067-0.248,0.149-0.515,0.246-0.799l1.333-3.905h1.533l-2.519,6.729h-1.426
		L371.134,233.323z"/>
	<path fill="#ECECEC" d="M381.448,240.226c-0.48,0-0.917-0.082-1.312-0.247c-0.395-0.164-0.732-0.399-1.012-0.706
		c-0.28-0.305-0.498-0.677-0.653-1.112c-0.156-0.435-0.233-0.924-0.233-1.465c0-0.551,0.081-1.047,0.246-1.486
		c0.164-0.44,0.388-0.814,0.673-1.12c0.284-0.307,0.618-0.539,0.999-0.699c0.382-0.161,0.796-0.24,1.24-0.24
		c0.453,0,0.866,0.082,1.239,0.246c0.374,0.164,0.69,0.395,0.954,0.693c0.261,0.297,0.466,0.651,0.612,1.059
		c0.147,0.408,0.221,0.852,0.221,1.333c0,0.097-0.005,0.2-0.014,0.306c-0.009,0.107-0.022,0.209-0.04,0.307h-4.69
		c0.062,0.586,0.25,1.053,0.565,1.399c0.316,0.347,0.753,0.52,1.313,0.52c0.399,0,0.746-0.082,1.039-0.247
		c0.293-0.164,0.537-0.402,0.733-0.712l0.92,0.76c-0.329,0.453-0.72,0.801-1.173,1.045
		C382.621,240.104,382.079,240.226,381.448,240.226 M381.395,234.323c-0.453,0-0.827,0.145-1.12,0.433
		c-0.293,0.289-0.484,0.712-0.573,1.273h3.278c-0.045-0.56-0.209-0.983-0.493-1.273
		C382.203,234.468,381.839,234.323,381.395,234.323"/>
	<path fill="#ECECEC" d="M389.11,230.991h3.185c0.427,0,0.811,0.058,1.153,0.173c0.342,0.115,0.633,0.28,0.872,0.493
		c0.24,0.214,0.424,0.467,0.553,0.76c0.129,0.294,0.193,0.618,0.193,0.973c0,0.4-0.095,0.758-0.286,1.073
		c-0.192,0.316-0.456,0.576-0.793,0.78c0.516,0.16,0.937,0.421,1.266,0.787c0.329,0.364,0.494,0.852,0.494,1.465
		c0,0.791-0.258,1.415-0.773,1.873c-0.516,0.457-1.267,0.686-2.252,0.686h-3.612V230.991z M392.029,234.816
		c0.533,0,0.917-0.12,1.152-0.36c0.235-0.24,0.354-0.56,0.354-0.96c0-0.4-0.118-0.72-0.354-0.96s-0.62-0.36-1.152-0.36h-1.439v2.639
		H392.029z M392.602,238.868c0.559,0,0.969-0.129,1.226-0.387c0.257-0.256,0.386-0.608,0.386-1.052s-0.129-0.795-0.386-1.053
		c-0.257-0.258-0.667-0.386-1.226-0.386h-2.013v2.878H392.602z"/>
	<path fill="#ECECEC" d="M400.158,233.137c0.498,0,0.947,0.086,1.346,0.259c0.399,0.173,0.742,0.417,1.026,0.733
		c0.284,0.316,0.505,0.691,0.66,1.126c0.155,0.436,0.233,0.911,0.233,1.426c0,0.524-0.079,1.001-0.233,1.432
		c-0.155,0.432-0.376,0.805-0.66,1.12c-0.284,0.316-0.627,0.56-1.026,0.734c-0.399,0.172-0.848,0.259-1.346,0.259
		c-0.498,0-0.946-0.087-1.345-0.259c-0.4-0.174-0.743-0.418-1.027-0.734c-0.284-0.315-0.504-0.687-0.659-1.12
		c-0.156-0.43-0.233-0.908-0.233-1.432c0-0.516,0.077-0.99,0.233-1.426c0.155-0.434,0.375-0.81,0.659-1.126
		c0.284-0.316,0.627-0.56,1.027-0.733C399.212,233.224,399.66,233.137,400.158,233.137 M400.158,239
		c0.586,0,1.033-0.212,1.339-0.634c0.307-0.421,0.46-0.983,0.46-1.685c0-0.701-0.153-1.264-0.46-1.686
		c-0.306-0.422-0.753-0.633-1.339-0.633c-0.586,0-1.033,0.211-1.339,0.633c-0.306,0.422-0.46,0.984-0.46,1.686
		c0,0.701,0.154,1.264,0.46,1.685C399.124,238.789,399.571,239,400.158,239"/>
	<path fill="#ECECEC" d="M406.981,240.227c-0.382,0-0.726-0.057-1.033-0.167c-0.307-0.112-0.566-0.264-0.78-0.46
		c-0.213-0.196-0.375-0.429-0.486-0.699c-0.111-0.271-0.167-0.562-0.167-0.873c0-0.311,0.056-0.602,0.167-0.873
		c0.11-0.271,0.273-0.504,0.486-0.699c0.214-0.196,0.473-0.349,0.78-0.46c0.307-0.111,0.651-0.166,1.033-0.166
		c0.692,0,1.284,0.222,1.772,0.667v-0.533c0-0.223-0.03-0.429-0.087-0.62c-0.058-0.191-0.146-0.358-0.266-0.5
		c-0.119-0.142-0.273-0.255-0.46-0.34c-0.186-0.085-0.408-0.127-0.666-0.127c-0.391,0-0.711,0.069-0.96,0.207
		c-0.248,0.138-0.462,0.309-0.64,0.514l-0.773-0.92c0.221-0.257,0.53-0.493,0.926-0.706c0.395-0.213,0.891-0.319,1.486-0.319
		c0.471,0,0.886,0.066,1.246,0.2c0.36,0.133,0.66,0.319,0.9,0.559c0.239,0.239,0.422,0.524,0.546,0.853
		c0.124,0.329,0.187,0.688,0.187,1.079v4.211h-1.373v-0.56C408.331,239.982,407.718,240.227,406.981,240.227 M407.274,239.133
		c0.302,0,0.586-0.062,0.852-0.186s0.475-0.302,0.627-0.535v-0.758c-0.152-0.231-0.361-0.411-0.627-0.54
		c-0.266-0.128-0.55-0.194-0.852-0.194c-0.232,0-0.429,0.032-0.593,0.093c-0.165,0.063-0.3,0.147-0.406,0.253
		c-0.107,0.106-0.185,0.228-0.233,0.36c-0.049,0.133-0.073,0.267-0.073,0.4c0,0.133,0.025,0.266,0.073,0.399
		c0.049,0.134,0.126,0.253,0.233,0.36c0.106,0.107,0.241,0.192,0.406,0.253C406.845,239.103,407.042,239.133,407.274,239.133"/>
	<path fill="#ECECEC" d="M412.084,233.323h1.373v1.106c0.178-0.373,0.428-0.678,0.753-0.919c0.324-0.24,0.703-0.36,1.14-0.36
		c0.07,0,0.135,0.002,0.193,0.007c0.058,0.004,0.117,0.011,0.18,0.02v1.386h-0.373c-0.418,0-0.785,0.093-1.1,0.279
		c-0.316,0.188-0.557,0.516-0.726,0.987v4.224h-1.439V233.323z"/>
	<path fill="#ECECEC" d="M421.413,239.214c-0.231,0.31-0.518,0.556-0.86,0.739c-0.342,0.183-0.717,0.273-1.126,0.273
		c-0.435,0-0.835-0.085-1.199-0.253c-0.365-0.168-0.679-0.406-0.94-0.712c-0.262-0.307-0.466-0.678-0.613-1.113
		c-0.147-0.436-0.221-0.925-0.221-1.466c0-0.534,0.073-1.017,0.221-1.452c0.147-0.435,0.351-0.806,0.613-1.113
		c0.261-0.307,0.575-0.544,0.94-0.713c0.364-0.169,0.764-0.253,1.199-0.253c0.39,0,0.753,0.086,1.086,0.26
		c0.333,0.173,0.615,0.406,0.846,0.699v-3.518h1.439v9.461h-1.386V239.214z M417.921,236.682c0,0.764,0.167,1.342,0.5,1.731
		c0.333,0.392,0.771,0.587,1.312,0.587c0.347,0,0.667-0.1,0.96-0.3c0.293-0.2,0.516-0.468,0.667-0.806v-2.412
		c-0.151-0.338-0.374-0.606-0.667-0.807c-0.293-0.2-0.613-0.3-0.96-0.3c-0.541,0-0.98,0.196-1.312,0.587
		C418.088,235.354,417.921,235.927,417.921,236.682"/>
	<path fill="#ECECEC" d="M427.409,235.522c0-0.684,0.1-1.314,0.3-1.893c0.2-0.577,0.484-1.075,0.852-1.492
		c0.369-0.417,0.809-0.742,1.319-0.974c0.511-0.23,1.082-0.346,1.713-0.346c0.861,0,1.589,0.186,2.179,0.559
		c0.591,0.374,1.068,0.861,1.433,1.466l-1.159,0.786c-0.248-0.453-0.564-0.819-0.946-1.1c-0.383-0.279-0.875-0.42-1.479-0.42
		c-0.444,0-0.833,0.082-1.166,0.247c-0.333,0.164-0.611,0.395-0.832,0.693c-0.223,0.298-0.391,0.658-0.507,1.079
		c-0.115,0.421-0.174,0.886-0.174,1.393c0,0.507,0.059,0.971,0.174,1.392c0.115,0.422,0.286,0.782,0.513,1.08
		c0.227,0.298,0.507,0.53,0.84,0.693c0.333,0.165,0.721,0.246,1.165,0.246c0.453,0,0.85-0.065,1.193-0.194
		c0.342-0.129,0.642-0.308,0.899-0.539v-1.826h-1.905v-1.226h3.385v3.718c-0.426,0.382-0.955,0.703-1.586,0.966
		c-0.631,0.262-1.305,0.393-2.026,0.393c-0.631,0-1.204-0.116-1.72-0.347c-0.515-0.231-0.955-0.555-1.318-0.973
		c-0.365-0.418-0.647-0.915-0.846-1.493C427.509,236.837,427.409,236.206,427.409,235.522"/>
	<path fill="#ECECEC" d="M438.949,240.227c-0.382,0-0.726-0.057-1.033-0.167c-0.307-0.112-0.566-0.264-0.78-0.46
		c-0.213-0.196-0.376-0.429-0.486-0.699c-0.111-0.271-0.167-0.562-0.167-0.873c0-0.311,0.056-0.602,0.167-0.873
		c0.11-0.271,0.273-0.504,0.486-0.699c0.214-0.196,0.473-0.349,0.78-0.46c0.307-0.111,0.651-0.166,1.033-0.166
		c0.692,0,1.284,0.222,1.772,0.667v-0.533c0-0.223-0.03-0.429-0.087-0.62c-0.058-0.191-0.146-0.358-0.266-0.5
		c-0.119-0.142-0.273-0.255-0.46-0.34c-0.186-0.085-0.408-0.127-0.666-0.127c-0.391,0-0.711,0.069-0.96,0.207
		c-0.248,0.138-0.462,0.309-0.64,0.514l-0.773-0.92c0.221-0.257,0.531-0.493,0.926-0.706c0.395-0.213,0.891-0.319,1.486-0.319
		c0.471,0,0.886,0.066,1.246,0.2c0.36,0.133,0.66,0.319,0.9,0.559c0.239,0.239,0.422,0.524,0.546,0.853
		c0.124,0.329,0.187,0.688,0.187,1.079v4.211h-1.373v-0.56C440.299,239.982,439.686,240.227,438.949,240.227 M439.242,239.133
		c0.302,0,0.586-0.062,0.852-0.186c0.266-0.124,0.475-0.302,0.627-0.535v-0.758c-0.152-0.231-0.361-0.411-0.627-0.54
		c-0.266-0.128-0.55-0.194-0.852-0.194c-0.232,0-0.429,0.032-0.593,0.093c-0.165,0.063-0.3,0.147-0.406,0.253
		c-0.107,0.106-0.185,0.228-0.233,0.36c-0.049,0.133-0.073,0.267-0.073,0.4c0,0.133,0.025,0.266,0.073,0.399
		c0.049,0.134,0.126,0.253,0.233,0.36c0.106,0.107,0.241,0.192,0.406,0.253C438.813,239.103,439.011,239.133,439.242,239.133"/>
	<path fill="#ECECEC" d="M444.053,233.323h1.386v0.826c0.205-0.267,0.471-0.5,0.8-0.699c0.329-0.2,0.719-0.3,1.172-0.3
		c0.507,0,0.928,0.1,1.267,0.3c0.337,0.2,0.594,0.486,0.773,0.859c0.187-0.311,0.461-0.582,0.826-0.813
		c0.365-0.232,0.8-0.347,1.306-0.347c0.809,0,1.413,0.233,1.812,0.699c0.4,0.467,0.6,1.1,0.6,1.898v4.305h-1.439v-4.144
		c0-0.507-0.119-0.888-0.36-1.146c-0.239-0.258-0.56-0.386-0.96-0.386c-0.374,0-0.687,0.109-0.94,0.327
		c-0.252,0.218-0.437,0.482-0.552,0.793v4.557h-1.439v-4.144c0-0.507-0.12-0.888-0.36-1.146c-0.24-0.258-0.559-0.386-0.96-0.386
		c-0.373,0-0.686,0.106-0.94,0.32c-0.253,0.214-0.437,0.471-0.552,0.773v4.584h-1.439V233.323z"/>
	<path fill="#ECECEC" d="M458.711,240.226c-0.48,0-0.917-0.082-1.312-0.247c-0.395-0.164-0.732-0.399-1.012-0.706
		c-0.28-0.305-0.498-0.677-0.653-1.112c-0.156-0.435-0.233-0.924-0.233-1.465c0-0.551,0.081-1.047,0.246-1.486
		c0.164-0.44,0.388-0.814,0.673-1.12c0.284-0.307,0.618-0.539,0.999-0.699c0.382-0.161,0.796-0.24,1.24-0.24
		c0.453,0,0.866,0.082,1.239,0.246c0.374,0.164,0.69,0.395,0.954,0.693c0.261,0.297,0.466,0.651,0.612,1.059
		c0.147,0.408,0.221,0.852,0.221,1.333c0,0.097-0.005,0.2-0.014,0.306c-0.009,0.107-0.022,0.209-0.04,0.307h-4.69
		c0.062,0.586,0.25,1.053,0.565,1.399c0.316,0.347,0.753,0.52,1.313,0.52c0.399,0,0.746-0.082,1.039-0.247
		c0.293-0.164,0.537-0.402,0.733-0.712l0.92,0.76c-0.329,0.453-0.72,0.801-1.173,1.045
		C459.884,240.104,459.341,240.226,458.711,240.226 M458.658,234.323c-0.453,0-0.827,0.145-1.12,0.433
		c-0.293,0.289-0.484,0.712-0.573,1.273h3.278c-0.045-0.56-0.209-0.983-0.493-1.273
		C459.466,234.468,459.102,234.323,458.658,234.323"/>
</g>
<g>
</g>
<g>
</g>
<g>
</g>
<g>
</g>
<g>
</g>
<g>
</g>
<g>
</g>
<g>
</g>
<g>
</g>
<g>
</g>
<g>
</g>
<g>
</g>
<g>
</g>
<g>
</g>
<g>
</g>
</svg>
